<svg width="579" height="108" viewBox="0 0 579 108" fill="none" xmlns="http://www.w3.org/2000/svg">
<path d="M194.064 106.15L179.404 79.01C176.294 73.53 173.134 70.88 169.714 70.88C169.594 70.88 169.474 70.89 169.364 70.92C166.374 71.57 164.654 73.69 164.654 76.75V106.15H146.594V0H156.024C160.704 0 164.654 4.03001 164.654 8.79001V55.97C164.654 56.67 165.084 57.29 165.744 57.54C165.934 57.61 166.134 57.65 166.334 57.65C166.814 57.65 167.274 57.45 167.604 57.08L193.514 27.38H214.654L187.824 56.12C187.314 56.66 187.224 57.47 187.604 58.12L215.904 106.16H194.064V106.15Z" fill="#003049"/>
<path d="M258.754 107.76C250.314 107.76 242.714 105.48 235.514 100.78C228.544 96.3903 225.164 87.5803 225.164 73.8503V24.3203H243.224V78.2003C243.224 88.5703 248.814 94.0503 259.394 94.0503C269.974 94.0503 275.564 88.5703 275.564 78.2003V33.2703C275.494 30.1503 276.164 27.8603 277.554 26.4403C278.934 25.0303 281.164 24.3203 284.194 24.3203H293.464V73.8503C293.464 87.8503 289.934 97.1203 282.984 101.41C275.674 105.61 267.504 107.76 258.754 107.76Z" fill="#003049"/>
<path d="M332.804 107.94C324.154 107.94 316.954 105.69 311.994 101.44C306.914 97.09 304.234 90.61 304.234 82.71C304.684 63.59 318.104 58.44 339.594 56.36C343.424 55.89 354.954 54.47 354.954 46.15C354.364 40.17 349.144 37.23 339.424 37.23C331.764 37.23 327.144 39.18 325.364 43.19H307.154C310.154 29.63 320.414 23.04 338.464 23.04C361.054 23.04 372.244 30.2 372.694 44.93V73.87C372.694 95.01 361.034 106.11 337.054 107.78C335.594 107.88 334.184 107.94 332.804 107.94ZM353.604 63.31C353.384 63.31 353.164 63.35 352.954 63.44C347.944 65.54 342.304 67.24 336.194 68.5C324.444 70.72 321.974 77.1 321.974 82.06C322.524 89.84 326.714 93.72 334.444 93.72C347.304 93.72 355.284 85.74 355.284 72.88V64.99C355.284 64.43 355.004 63.91 354.534 63.59C354.254 63.41 353.934 63.31 353.604 63.31Z" fill="#003049"/>
<path d="M446.353 106.15C440.203 105.73 437.403 102.96 437.403 97.2003V53.4003C436.863 43.4903 431.313 38.5203 420.913 38.5203C410.513 38.5203 404.923 43.6603 404.743 53.3703V106.15H386.363V57.7503C386.363 34.3903 397.773 23.0303 421.243 23.0303C432.853 23.0303 441.593 25.9103 447.233 31.5803C452.883 37.2703 455.713 46.0703 455.633 57.7403V106.15H446.353Z" fill="#003049"/>
<path d="M491.036 105.65C487.066 105.65 482.976 105.44 478.886 105.03C471.756 104.32 468.496 99.99 468.646 91.43V0H478.076C482.676 0 486.706 4.26002 486.706 9.11002V22.63C486.706 23.56 487.456 24.31 488.386 24.31H499.586V27.3C499.586 32.4 495.736 36.25 490.636 36.25H488.386C487.456 36.25 486.706 37 486.706 37.93V85.12C486.706 89.67 489.606 92.27 494.666 92.27H499.586V105.32C496.796 105.54 493.926 105.65 491.036 105.65Z" fill="#003049"/>
<path d="M538.593 107.94C529.943 107.94 522.743 105.69 517.783 101.44C512.703 97.09 510.023 90.61 510.023 82.71C510.473 63.59 523.883 58.44 545.383 56.36C549.213 55.89 560.753 54.47 560.753 46.15C560.163 40.17 554.943 37.23 545.223 37.23C537.563 37.23 532.943 39.18 531.163 43.19H512.953C515.953 29.63 526.213 23.04 544.263 23.04C566.853 23.04 578.043 30.2 578.493 44.93V73.87C578.493 95.01 566.833 106.11 542.853 107.78C541.383 107.88 539.973 107.94 538.593 107.94ZM559.393 63.31C559.173 63.31 558.953 63.35 558.743 63.44C553.733 65.54 548.103 67.24 541.983 68.5C530.233 70.72 527.763 77.1 527.763 82.06C528.313 89.84 532.503 93.72 540.233 93.72C553.093 93.72 561.073 85.74 561.073 72.88V64.99C561.073 64.43 560.793 63.91 560.323 63.59C560.033 63.41 559.713 63.31 559.393 63.31Z" fill="#003049"/>
<path d="M97.6987 58.8699C92.4287 56.4699 86.5588 55.1299 80.3988 55.1299C57.6288 55.1299 39.0388 73.3699 38.4888 96.0199C38.4688 96.3699 38.4688 96.7099 38.4688 97.0599C38.4688 99.4099 38.6688 101.69 39.0388 103.94C41.5888 104.63 44.2088 105.13 46.9088 105.4C46.3188 102.97 45.9687 100.42 45.9187 97.7999C45.8987 97.5499 45.8988 97.2999 45.8988 97.0599C45.8988 78.0299 61.3988 62.5499 80.4088 62.5499C86.0488 62.5499 91.3788 63.9099 96.0788 66.3099C98.3788 67.4699 100.509 68.9099 102.469 70.5699C103.389 68.0699 104.079 65.4699 104.599 62.8199C102.429 61.3199 100.129 59.9799 97.6987 58.8699Z" fill="#003049"/>
<path d="M80.3983 70.6201C65.8483 70.6201 53.9883 82.4801 53.9883 97.0601C53.9883 97.4601 53.9883 97.8801 54.0083 98.2701C54.1283 100.84 54.6283 103.32 55.4183 105.65C57.9883 105.53 60.5383 105.2 63.0183 104.71C62.0283 102.48 61.4583 100.03 61.4083 97.4601V97.0601C61.4083 86.5901 69.9183 78.0501 80.3983 78.0501C83.4883 78.0501 86.4083 78.7901 88.9883 80.1001C91.2183 81.2401 93.1983 82.8001 94.8283 84.6801C96.3883 82.6501 97.7783 80.5201 98.9883 78.2901C97.2083 76.5101 95.1783 75.0001 92.9783 73.7801C89.2383 71.7901 84.9283 70.6201 80.3983 70.6201Z" fill="#003049"/>
<path d="M84.9786 84.7794C83.5686 84.2394 82.0086 83.9395 80.3986 83.9395C73.5886 83.9395 67.9986 89.1595 67.3786 95.8195C67.3286 96.2195 67.3086 96.6394 67.3086 97.0594C67.3086 99.2894 67.8486 101.369 68.8386 103.199C71.2386 102.429 73.5686 101.489 75.7986 100.379C75.1286 99.4395 74.7386 98.2994 74.7386 97.0594C74.7386 93.9194 77.2886 91.3694 80.4086 91.3694C82.5586 91.3694 84.4386 92.5595 85.4086 94.3195C87.3686 92.7895 89.2186 91.0994 90.9286 89.2994C89.4586 87.2594 87.3986 85.6694 84.9786 84.7794Z" fill="#003049"/>
<path d="M40.9415 27.6293C46.4615 37.3593 55.4715 44.3893 66.2615 47.3593C69.9715 48.3693 73.7415 48.8893 77.4715 48.8893C84.2815 48.8893 91.0315 47.2093 97.2015 43.8893C97.5015 43.7693 97.8215 43.5893 98.1215 43.4193C100.152 42.2593 102.062 40.9693 103.812 39.5093C103.122 36.8893 102.252 34.3593 101.192 31.9393C99.3315 33.7193 97.2815 35.2793 95.0515 36.5893C94.8515 36.7093 94.6315 36.8393 94.4315 36.9593C86.4315 41.4893 77.1315 42.6493 68.2415 40.1993C59.3515 37.7493 51.9515 31.9793 47.4015 23.9593C44.6515 19.1593 43.1715 13.8593 42.9415 8.48932C42.8215 5.93932 42.9915 3.36934 43.4815 0.819336C40.8115 1.26934 38.2115 1.92933 35.6815 2.82933C35.4115 5.47933 35.3815 8.12933 35.6615 10.7493C36.1715 16.6093 37.9715 22.3293 40.9415 27.6293Z" fill="#003049"/>
<path d="M70.3712 32.4098C72.7212 33.0498 75.1012 33.3798 77.4512 33.3798C81.9812 33.3798 86.4412 32.2198 90.4512 29.9398C90.8012 29.7398 91.1412 29.5397 91.4912 29.2997C93.6412 27.9597 95.5712 26.3298 97.2112 24.4698C95.8512 22.3198 94.3112 20.2598 92.6312 18.3298C91.1712 20.3098 89.2912 22.0198 87.0912 23.2798C86.9912 23.3498 86.8912 23.4298 86.7912 23.4798C82.3812 25.9798 77.2612 26.6198 72.3612 25.2598C67.4812 23.8998 63.4012 20.7298 60.9012 16.3198C59.4112 13.6698 58.5712 10.7798 58.4512 7.82977C58.3512 5.84977 58.5712 3.83976 59.1212 1.88976C59.2412 1.41976 59.3912 0.949752 59.5912 0.479752C57.3412 0.159752 55.0412 0.00976563 52.6812 0.00976563C52.4312 0.00976563 52.1812 0.0097644 51.9412 0.0397644C51.2712 2.48976 50.9512 4.98976 51.0212 7.46976C51.0712 11.8298 52.2312 16.1097 54.4412 19.9897C57.9212 26.1197 63.5912 30.5198 70.3712 32.4098Z" fill="#003049"/>
<path d="M66.0208 13.3996C67.7508 16.4396 70.5508 18.6496 73.9408 19.5596C75.1008 19.8796 76.2708 20.0496 77.4308 20.0496C79.2908 20.0496 81.0908 19.6496 82.8008 18.8896C83.1708 18.7196 83.5408 18.5396 83.8908 18.3496C85.8008 17.2596 87.3308 15.7796 88.4708 13.9896C86.6108 12.3096 84.6608 10.7196 82.5808 9.30957C82.0808 10.3496 81.2908 11.2596 80.2308 11.8796C78.9208 12.6196 77.3808 12.8196 75.9208 12.3996C74.4608 11.9996 73.2208 11.0596 72.4808 9.72958C71.7408 8.41958 71.5408 6.87959 71.9608 5.41959C72.1108 4.87959 72.3308 4.37958 72.6008 3.90958C70.3008 2.96958 67.9208 2.17957 65.4708 1.55957C65.2008 2.14957 64.9508 2.79958 64.7808 3.43958C64.2808 5.26958 64.1908 7.14958 64.4808 8.97958C64.7108 10.5196 65.2208 12.0096 66.0208 13.3996Z" fill="#003049"/>
<path d="M41.1708 43.7695C38.5208 33.2495 32.0608 24.3095 22.9308 18.5695C22.6308 18.3695 22.3408 18.1695 22.0408 17.9995C20.0408 16.8095 17.9808 15.7995 15.8508 14.9795C13.9408 16.8395 12.1608 18.8395 10.5508 20.9695C12.9808 21.7095 15.3308 22.7295 17.5808 24.0395C17.8008 24.1395 18.0008 24.2595 18.2208 24.3895C26.1208 29.1195 31.7108 36.6395 33.9608 45.5795C36.2108 54.5195 34.8508 63.7995 30.1208 71.7195C27.2208 76.5495 23.3408 80.4095 18.8608 83.1995C16.6808 84.5895 14.3508 85.6995 11.9308 86.5195C13.6408 88.5995 15.5208 90.5295 17.5208 92.3395C19.9708 91.2795 22.3008 89.9595 24.4508 88.4495C29.2808 85.1095 33.3608 80.6995 36.4808 75.4995C42.2508 65.8995 43.9108 54.6295 41.1708 43.7695Z" fill="#003049"/>
<path d="M23.1911 67.5501C26.8011 61.4901 27.8411 54.3801 26.1411 47.5501C24.4111 40.6901 20.1311 34.9301 14.0611 31.3101C13.7111 31.1101 13.3711 30.9101 13.0211 30.7201C10.7911 29.5101 8.42109 28.6401 5.99109 28.1201C4.78109 30.3701 3.74109 32.7001 2.87109 35.1301C5.35109 35.4301 7.72108 36.2201 9.92108 37.5101C10.0411 37.5601 10.1411 37.6101 10.2411 37.6801C14.6011 40.3001 17.6911 44.4401 18.9311 49.3601C20.1711 54.2901 19.4011 59.3801 16.8011 63.7401C15.2211 66.3901 13.0611 68.5201 10.6111 70.0501C8.48108 71.3901 6.10109 72.2801 3.65109 72.7001C4.62109 75.0801 5.75109 77.3801 7.07109 79.5601C9.50109 78.9701 11.8211 78.0001 13.9811 76.6901C17.6511 74.5601 20.8711 71.4601 23.1911 67.5501Z" fill="#003049"/>
<path d="M11.76 60.7196C15.27 54.8496 13.64 47.3296 8.22 43.4196C7.9 43.1696 7.58001 42.9496 7.23001 42.7496C5.37001 41.6396 3.29 40.9896 1.19 40.8896C0.620002 43.3196 0.22 45.7896 0 48.3396C1.19 48.2396 2.38 48.4896 3.42 49.1096C6.12 50.7196 6.98 54.2096 5.38 56.9096C4.27 58.7696 2.26001 59.7596 0.26001 59.6296C0.58001 62.1496 1.08 64.6096 1.75 67.0096C4.25 66.7896 6.68001 65.8196 8.68001 64.2096C9.88001 63.2996 10.94 62.1296 11.76 60.7196Z" fill="#003049"/>
</svg>
